<svg width="171" height="177" viewBox="0 0 171 177" fill="none" xmlns="http://www.w3.org/2000/svg">
<path d="M69.2652 94.3499H66.635L66.4536 94.1667C66.7438 91.8214 68.6304 91.174 69.5373 91.1434C69.4769 92.2123 69.3378 94.3499 69.2652 94.3499Z" fill="white"/>
<path d="M69.9908 94.3499V91.1434H70.1722C72.2038 91.5099 72.7722 93.4338 72.8025 94.3499H69.9908Z" fill="white"/>
<path d="M69.2652 94.8996H66.635V98.1977H69.2652V94.8996Z" fill="white"/>
<path d="M72.8025 95.0828H69.8094V98.1977H72.8025V95.0828Z" fill="white"/>
<path d="M88.6642 93.9972H86.0339L85.8525 93.814C86.1428 91.4687 88.0293 90.8212 88.9363 90.7907C88.8758 91.8595 88.7367 93.9972 88.6642 93.9972Z" fill="white"/>
<path d="M89.3898 93.9972V90.7907H89.5711C91.6028 91.1572 92.1711 93.0811 92.2014 93.9972H89.3898Z" fill="white"/>
<path d="M88.6642 94.5469H86.0339V97.845H88.6642V94.5469Z" fill="white"/>
<path d="M92.2014 94.7301H89.2084V97.845H92.2014V94.7301Z" fill="white"/>
<path d="M78.7985 92.9952L75.8886 97.9332H79.2394L88.8508 80.8266L86.6464 76.6822L87.1755 66.6299L79.9448 61.5155L72.2733 65.3954L71.8324 75.9768H72.626L72.8906 66.0126L79.2394 62.8382L78.3576 86.1173L72.2733 76.6822L68.5698 75.4477L78.7985 92.9952Z" fill="white"/>
<path d="M75.0068 51.1105L74.4778 63.2791L75.2714 62.5737L75.7123 51.1105L84.4419 41.5872L83.6483 63.5436H84.2656L84.4419 60.1047L90.0853 54.5494L93.0834 57.4593L93.5243 46.8779L84.6183 40L75.0068 51.1105Z" fill="white"/>
<path d="M85.2355 60.6337V64.0727H84.7065V60.6337L90.0853 55.343L94.847 60.1047L94.0534 79.5921L88.8508 75.7122L89.4681 56.5775L85.2355 60.6337Z" fill="white"/>
<path d="M103.841 60.3692L95.8169 52.9622C95.4936 61.8388 94.847 79.7155 94.847 80.2093C94.847 80.7031 95.8463 81.1793 96.346 81.3556L96.8751 70.2452L102.43 64.6018L103.488 65.8363L103.841 60.3692Z" fill="white"/>
<path d="M102.078 65.3954C100.549 67.1001 97.4394 70.5097 97.2278 70.5097L96.8751 81.7965L97.2278 82.0611L97.845 71.0388L101.901 66.9826L101.284 91.8489L96.8751 87.5281L97.0514 83.2956L88.8508 77.2994L99.4322 99.344C103.735 99.1324 112.865 101.078 116.892 102.078L111.072 92.9952L107.368 90.6144L108.426 71.0388L102.078 65.3954Z" fill="white"/>
<path d="M131 109.485C91.323 99.1834 53.8012 103.441 40 106.857C41.2333 105.718 51.1878 102.74 53.5663 102.039C55.9448 101.338 72.5063 98.0097 98.758 100.55C119.759 102.582 129.003 107.353 131 109.485Z" fill="white"/>
<path d="M53.4163 71.4312C49.1399 75.4362 49.0056 94.3543 49.4729 103.313V103.488L53.5039 102.259L53.7668 99.0092L54.8184 90.4021C54.8885 89.84 55.315 88.5284 55.5194 87.9429C55.5895 87.451 56.3081 86.3327 56.6586 85.835C58.2009 86.4674 58.8202 89.2603 58.937 90.5777C59.9185 88.9617 59.1123 86.8011 58.5865 85.9228L61.1278 87.855C61.1979 86.5903 59.8717 85.2788 59.1999 84.7811H61.5659C59.6731 82.4624 57.9731 83.1123 57.3597 83.7271C57.4473 83.288 57.5174 82.2692 57.0968 81.7071C56.571 81.0045 54.1173 79.5114 55.4318 81.0045C56.4834 82.1989 56.3373 83.0831 56.1328 83.3758C54.6606 81.9003 53.4747 82.3512 53.0658 82.761C53.8412 83.2561 55.4001 84.2479 55.4318 84.2541C52.3647 83.6393 51.6637 87.5037 52.1895 86.362C52.6101 85.4486 54.9936 85.3959 56.1328 85.4837C53.9596 88.0131 52.8905 96.023 52.6276 99.7118C50.6997 87.0646 52.7445 75.5006 55.2565 71.4312L64.4578 83.2002L54.0297 100.59L58.0607 99.7118L69.0145 80.4775L67.3496 77.4914L65.2464 81.1801C65.3165 77.386 62.6467 72.9243 61.303 71.4312L69.628 75.4713C68.5764 69.7801 63.6399 67.6546 61.303 67.3033L69.0145 65.8981C68.9561 65.459 67.8753 64.2118 64.0196 62.7363C60.1638 61.2608 57.1552 64.2294 56.1328 65.8981C56.0627 64.4928 55.5194 62.2679 55.2565 61.331C53.7843 57.2558 50.0279 56.4712 48.3337 56.5883C51.9791 60.8743 52.8905 63.9952 52.8905 64.932C48.0533 60.646 43.923 62.9119 42.4625 64.5807C45.7574 64.2996 50.6121 67.3326 52.6276 68.8842C45.3367 66.4251 42.1119 72.5437 41.4109 75.9105C43.7944 73.4513 50.4076 71.8997 53.4163 71.4312Z" fill="white"/>
<path d="M113.909 84.2941C112.207 84.5294 108.626 85.1941 107.921 85.9706C107.041 86.9411 109.066 81.0294 113.909 81.3823L108.626 79.4412C109.624 78.6471 112.042 77.2706 113.733 78.1177C115.424 78.9647 116.551 80.4118 116.903 81.0294C116.844 79.0883 117.748 75.2942 121.834 75.6471L118.664 80.3235L118.928 80.6765C119.897 79.6177 122.468 78.2765 125.004 81.3823L118.488 82.8823C120.513 82.5 124.581 83.1647 124.652 88.8823C123.566 87.5882 120.76 84.9294 118.224 84.647C118.958 86.2941 120.302 91.2823 119.809 98.0587C119.532 101.861 119.427 103.582 119.404 104.225L119.456 104.235C119.418 104.571 119.386 104.727 119.404 104.225L117.255 103.794C118.194 99.5881 119.439 89.8705 116.903 84.647C114.848 86.5588 110.722 90.8058 110.651 92.4999C110.563 94.6175 109.506 86.147 113.205 84.647L113.909 84.2941Z" fill="white"/>
<path d="M45 127.454V127.148L46.0725 127.08V118.136L45 118.069V117.763H48.5101C49.4527 117.763 50.2606 117.878 50.9338 118.109C51.607 118.34 52.1387 118.675 52.5287 119.114C52.9233 119.554 53.2089 120.063 53.3853 120.642C53.5664 121.222 53.6569 121.892 53.6569 122.652C53.6569 123.2 53.5989 123.712 53.4828 124.187C53.3668 124.658 53.181 125.097 52.9257 125.505C52.6749 125.907 52.3592 126.254 51.9785 126.544C51.6024 126.829 51.1381 127.053 50.5856 127.216C50.0377 127.374 49.4225 127.454 48.74 127.454H45ZM47.8555 127.012C48.1062 127.057 48.3337 127.08 48.538 127.08C49.0116 127.08 49.4318 127.005 49.7986 126.856C50.17 126.707 50.4788 126.501 50.7249 126.238C50.9756 125.971 51.1822 125.647 51.3447 125.267C51.5072 124.882 51.6233 124.466 51.6929 124.017C51.7672 123.569 51.8044 123.078 51.8044 122.544C51.8044 122.019 51.7788 121.55 51.7278 121.138C51.6767 120.726 51.5792 120.325 51.4352 119.936C51.296 119.547 51.1102 119.225 50.8781 118.972C50.6459 118.718 50.3395 118.517 49.9588 118.367C49.578 118.213 49.1323 118.136 48.6216 118.136C48.3616 118.136 48.1062 118.159 47.8555 118.204V127.012Z" fill="white"/>
<path d="M54.0503 127.454V127.148L54.893 127.08L58.1872 117.485H58.5007L61.9063 127.08L62.8256 127.148V127.454H59.0996V127.148L60.0398 127.08L59.218 124.642H56.0979L55.29 127.08L56.2302 127.148V127.454H54.0503ZM56.2232 124.235L59.0648 124.18L57.6719 120.011H57.644L56.2232 124.235Z" fill="white"/>
<path d="M61.4848 118.069V117.763H65.573V118.069L64.4935 118.136L66.8406 122.259H66.8754L68.8394 118.136L67.8574 118.069V117.763H70.1766V118.069L69.313 118.136L67.14 122.68V127.08L68.2126 127.148V127.454H64.2915V127.148L65.3571 127.08V123.08L62.425 118.136L61.4848 118.069Z" fill="white"/>
<path d="M74.2645 127.454V127.148L75.337 127.08V118.136L74.2645 118.069V117.763H78.1925V118.069L77.12 118.136V127.012C77.8768 127.062 78.3945 127.087 78.6731 127.087C78.9284 127.087 79.1513 127.08 79.3417 127.066C79.5367 127.053 79.7131 127.023 79.871 126.978C80.0335 126.933 80.1681 126.885 80.2749 126.836C80.3863 126.786 80.4908 126.709 80.5883 126.605C80.6858 126.496 80.7648 126.392 80.8251 126.292C80.8855 126.188 80.9644 125.989 81.0619 125.695C81.1594 125.396 81.2453 125.059 81.3196 124.683H81.5564V127.454H74.2645Z" fill="white"/>
<path d="M82.5278 127.454V127.148L83.6003 127.08V118.136L82.5278 118.069V117.763H89.3879L89.4575 120.527H89.165C89.1093 120.219 89.049 119.959 88.9839 119.746C88.9236 119.529 88.8354 119.311 88.7193 119.094C88.6032 118.877 88.4663 118.705 88.3084 118.578C88.1552 118.447 87.9555 118.34 87.7094 118.259C87.468 118.177 87.1871 118.136 86.8667 118.136C86.4721 118.136 85.9776 118.159 85.3833 118.204V122.238C85.5226 122.252 85.7756 122.259 86.1424 122.259C86.6299 122.259 86.9782 122.143 87.1871 121.912C87.396 121.677 87.5005 121.251 87.5005 120.636H87.8835V124.282H87.5005C87.5005 123.667 87.3937 123.239 87.1801 122.999C86.9712 122.754 86.6253 122.632 86.1424 122.632C85.7849 122.632 85.5319 122.639 85.3833 122.652V127.012C85.9776 127.057 86.5672 127.08 87.1523 127.08C87.4262 127.08 87.6676 127.06 87.8766 127.019C88.0855 126.974 88.2666 126.901 88.4198 126.802C88.573 126.702 88.703 126.591 88.8098 126.469C88.9166 126.342 89.0095 126.181 89.0884 125.987C89.172 125.792 89.2393 125.597 89.2904 125.403C89.3415 125.208 89.3949 124.968 89.4506 124.683H89.75L89.6734 127.454H82.5278Z" fill="white"/>
<path d="M91.2717 122.809C91.2717 122.333 91.3251 121.856 91.4319 121.376C91.5433 120.891 91.7197 120.418 91.9612 119.956C92.2072 119.49 92.5021 119.078 92.8457 118.72C93.1939 118.363 93.628 118.075 94.148 117.858C94.668 117.636 95.2391 117.525 95.8613 117.525C96.7992 117.525 97.5746 117.72 98.1875 118.109C98.805 118.499 99.1138 118.958 99.1138 119.488C99.1138 119.773 99.0209 120.015 98.8352 120.214C98.6494 120.414 98.3941 120.513 98.0691 120.513C97.7673 120.513 97.5212 120.423 97.3308 120.242C97.1405 120.056 97.0453 119.823 97.0453 119.542C97.0453 119.234 97.1451 118.994 97.3448 118.822C97.5444 118.646 97.7998 118.558 98.1109 118.558V118.53C98.0087 118.413 97.7905 118.284 97.4562 118.143C97.1265 118.003 96.7342 117.933 96.2792 117.933C95.6245 117.933 95.0581 118.132 94.5798 118.53C94.1016 118.924 93.7394 119.47 93.4934 120.167C93.2473 120.864 93.1242 121.67 93.1242 122.584C93.1242 122.897 93.1335 123.198 93.1521 123.488C93.1753 123.777 93.2171 124.083 93.2775 124.404C93.3378 124.726 93.4144 125.022 93.5073 125.294C93.6048 125.566 93.7325 125.828 93.8903 126.082C94.0482 126.331 94.2316 126.544 94.4405 126.72C94.6495 126.897 94.9025 127.037 95.1997 127.141C95.4968 127.245 95.8242 127.297 96.1817 127.297C96.5856 127.297 97.0174 127.229 97.4771 127.094V123.393L96.4463 123.318V123.012H100.096V123.318L99.072 123.393V126.992C98.6819 127.214 98.1921 127.386 97.6024 127.508C97.0128 127.63 96.4115 127.691 95.7986 127.691C92.7807 127.691 91.2717 126.064 91.2717 122.809Z" fill="white"/>
<path d="M100.357 127.454V127.148L101.199 127.08L104.494 117.485H104.807L108.213 127.08L109.132 127.148V127.454H105.406V127.148L106.346 127.08L105.524 124.642H102.404L101.596 127.08L102.537 127.148V127.454H100.357ZM102.53 124.235L105.371 124.18L103.978 120.011H103.95L102.53 124.235Z" fill="white"/>
<path d="M109.525 122.781C109.525 122.279 109.581 121.783 109.693 121.294C109.804 120.805 109.98 120.332 110.222 119.875C110.468 119.418 110.767 119.017 111.12 118.673C111.473 118.324 111.91 118.046 112.43 117.838C112.95 117.629 113.521 117.525 114.143 117.525C114.867 117.525 115.506 117.72 116.058 118.109C116.611 118.494 116.887 118.951 116.887 119.481C116.887 119.748 116.799 119.977 116.622 120.167C116.451 120.357 116.214 120.452 115.912 120.452C115.624 120.452 115.39 120.366 115.209 120.194C115.027 120.018 114.937 119.796 114.937 119.529C114.937 119.266 115.023 119.046 115.195 118.87C115.366 118.689 115.58 118.598 115.835 118.598C115.886 118.598 115.924 118.601 115.947 118.605V118.578C115.877 118.451 115.689 118.309 115.383 118.15C115.076 117.992 114.707 117.912 114.275 117.912C113.43 117.912 112.736 118.34 112.193 119.196C111.65 120.052 111.378 121.181 111.378 122.584C111.378 123.187 111.431 123.757 111.538 124.296C111.645 124.83 111.803 125.317 112.012 125.756C112.225 126.195 112.511 126.546 112.868 126.808C113.226 127.066 113.635 127.195 114.094 127.195C114.754 127.195 115.327 127.005 115.814 126.625C116.307 126.24 116.687 125.749 116.957 125.151L117.284 125.301C116.62 126.894 115.503 127.691 113.934 127.691C113.252 127.691 112.648 127.598 112.123 127.413C111.599 127.227 111.174 126.983 110.849 126.679C110.528 126.372 110.266 126 110.062 125.566C109.857 125.131 109.716 124.69 109.637 124.241C109.563 123.793 109.525 123.307 109.525 122.781Z" fill="white"/>
<path d="M117.308 118.069V117.763H121.396V118.069L120.317 118.136L122.664 122.259H122.699L124.663 118.136L123.681 118.069V117.763H126V118.069L125.136 118.136L122.963 122.68V127.08L124.036 127.148V127.454H120.115V127.148L121.181 127.08V123.08L118.248 118.136L117.308 118.069Z" fill="white"/>
<path d="M45.4002 136.426V132.577H48.361V133.224H46.2257V134.181H47.9064V134.799H46.2257V135.779H48.4448V136.426H45.4002Z" fill="white"/>
<path d="M54.79 132.577V136.426H53.8449L52.4632 134.163L52.1222 133.533H52.1163L52.1402 134.198V136.426H51.3985V132.577H52.3376L53.7193 134.834L54.0602 135.47H54.0722L54.0483 134.805V132.577H54.79Z" fill="white"/>
<path d="M60.6473 132.577V135.009C60.6473 135.472 60.5137 135.833 60.2466 136.094C59.9794 136.354 59.6006 136.485 59.1101 136.485C58.7592 136.485 58.4741 136.422 58.2547 136.298C58.0354 136.174 57.8839 135.999 57.8002 135.773C57.7164 135.548 57.7005 135.289 57.7523 134.997L58.5538 134.857C58.506 135.2 58.5279 135.446 58.6196 135.598C58.7113 135.75 58.8808 135.826 59.128 135.826C59.3872 135.826 59.5667 135.748 59.6664 135.592C59.77 135.437 59.8219 135.205 59.8219 134.898V132.577H60.6473Z" fill="white"/>
<path d="M65.5319 132.519C65.9227 132.519 66.2597 132.598 66.5428 132.758C66.8259 132.917 67.0433 133.145 67.1948 133.44C67.3503 133.736 67.4281 134.089 67.4281 134.502C67.4281 134.914 67.3503 135.268 67.1948 135.563C67.0433 135.859 66.8259 136.086 66.5428 136.245C66.2597 136.405 65.9227 136.485 65.5319 136.485C65.1412 136.485 64.8022 136.405 64.5151 136.245C64.232 136.086 64.0127 135.859 63.8571 135.563C63.7056 135.268 63.6299 134.914 63.6299 134.502C63.6299 134.089 63.7056 133.736 63.8571 133.44C64.0127 133.145 64.232 132.917 64.5151 132.758C64.8022 132.598 65.1412 132.519 65.5319 132.519ZM65.5319 133.178C65.3086 133.178 65.1192 133.228 64.9637 133.329C64.8082 133.43 64.6886 133.58 64.6048 133.778C64.5251 133.973 64.4852 134.214 64.4852 134.502C64.4852 134.785 64.5251 135.026 64.6048 135.225C64.6886 135.423 64.8082 135.573 64.9637 135.674C65.1192 135.775 65.3086 135.826 65.5319 135.826C65.7513 135.826 65.9387 135.775 66.0942 135.674C66.2497 135.573 66.3674 135.423 66.4471 135.225C66.5308 135.026 66.5727 134.785 66.5727 134.502C66.5727 134.214 66.5308 133.973 66.4471 133.778C66.3674 133.58 66.2497 133.43 66.0942 133.329C65.9387 133.228 65.7513 133.178 65.5319 133.178Z" fill="white"/>
<path d="M73.4221 132.577L72.0224 134.986V136.426H71.197V134.986L69.7973 132.577H70.6766L71.3106 133.732L71.6097 134.332L71.9147 133.732L72.5488 132.577H73.4221Z" fill="white"/>
<path d="M80.0521 136.426V132.577H83.0129V133.224H80.8775V134.181H82.5583V134.799H80.8775V135.779H83.0966V136.426H80.0521Z" fill="white"/>
<path d="M89.4598 132.577L88.0242 136.426H87.0612L85.6197 132.577H86.493L87.3244 135.026L87.5517 135.785L87.773 135.032L88.6104 132.577H89.4598Z" fill="white"/>
<path d="M92.2706 136.426V132.577H95.2314V133.224H93.096V134.181H94.7768V134.799H93.096V135.779H95.3151V136.426H92.2706Z" fill="white"/>
<path d="M100.009 132.577C100.456 132.577 100.807 132.682 101.062 132.892C101.317 133.102 101.445 133.384 101.445 133.738C101.445 134.115 101.317 134.404 101.062 134.607C100.807 134.805 100.458 134.904 100.015 134.904L99.9317 134.951H99.0823V136.426H98.2688V132.577H100.009ZM99.9137 134.338C100.145 134.338 100.316 134.294 100.428 134.204C100.544 134.111 100.602 133.969 100.602 133.778C100.602 133.588 100.544 133.448 100.428 133.358C100.316 133.265 100.145 133.218 99.9137 133.218H99.0823V134.338H99.9137ZM100.398 134.507L101.678 136.426H100.751L99.6924 134.741L100.398 134.507Z" fill="white"/>
<path d="M107.513 132.577L106.114 134.986V136.426H105.288V134.986L103.888 132.577H104.768L105.402 133.732L105.701 134.332L106.006 133.732L106.64 132.577H107.513Z" fill="white"/>
<path d="M111.756 132.577C112.374 132.577 112.852 132.744 113.191 133.079C113.53 133.409 113.7 133.883 113.7 134.502C113.7 135.116 113.53 135.59 113.191 135.925C112.852 136.259 112.374 136.426 111.756 136.426H110.23V132.577H111.756ZM111.714 135.785C112.089 135.785 112.37 135.676 112.557 135.458C112.748 135.236 112.844 134.918 112.844 134.502C112.844 134.086 112.748 133.769 112.557 133.551C112.37 133.329 112.089 133.218 111.714 133.218H111.056V135.785H111.714Z" fill="white"/>
<path d="M120.024 136.426H119.169L118.84 135.487H117.326L116.997 136.426H116.154L117.595 132.577H118.582L120.024 136.426ZM117.512 134.892H118.654L118.08 133.213L117.512 134.892Z" fill="white"/>
<path d="M125.455 132.577L124.056 134.986V136.426H123.23V134.986L121.831 132.577H122.71L123.344 133.732L123.643 134.332L123.948 133.732L124.582 132.577H125.455Z" fill="white"/>
</svg>
