<svg width="171" height="127" viewBox="0 0 171 127" fill="none" xmlns="http://www.w3.org/2000/svg">
<path d="M90.7311 71.2422L89 70.4767L89.0571 70.3471C90.2917 67.5492 90.4434 64.3911 89.4828 61.4873L89.0884 60.2924L90.3434 60.2422L90.3809 61.185L91.05 60.5144L91.1352 60.9397L91.2795 60.8918C92.3877 64.2418 92.2126 67.885 90.7882 71.1127L90.7311 71.2422Z" fill="#F2F2F2"/>
<path d="M91.0811 86.2422C90.9247 86.2424 90.7708 86.205 90.634 86.1335C90.4972 86.062 90.382 85.9589 90.2994 85.8338L88.1388 82.5651C88.01 82.3702 87.9686 82.1351 88.024 81.9115C88.0793 81.6879 88.2267 81.4942 88.4338 81.3729C88.6409 81.2516 88.8907 81.2127 89.1283 81.2648C89.3658 81.3169 89.5717 81.4557 89.7005 81.6506L91.8611 84.9193C91.9478 85.0503 91.9956 85.2007 91.9997 85.355C92.0038 85.5092 91.964 85.6617 91.8845 85.7966C91.8049 85.9316 91.6885 86.044 91.5473 86.1224C91.406 86.2007 91.2451 86.2421 91.0812 86.2422H91.0811Z" fill="#F2F2F2"/>
<path d="M90.8086 51.2422C90.6748 51.2421 90.5431 51.2101 90.4253 51.1491C90.3075 51.0881 90.2073 51 90.1336 50.8927C90.06 50.7854 90.0152 50.6622 90.0032 50.5342C89.9913 50.4062 90.0126 50.2773 90.0652 50.1591L90.4748 49.2896L92.536 46.5628C92.6621 46.396 92.852 46.2842 93.064 46.2519C93.2759 46.2195 93.4925 46.2694 93.6662 46.3905C93.8399 46.5116 93.9563 46.6939 93.99 46.8975C94.0236 47.101 93.9717 47.309 93.8456 47.4758L91.8377 50.1321L91.5528 50.7709C91.4904 50.9108 91.3867 51.0301 91.2544 51.1138C91.1221 51.1976 90.9671 51.2423 90.8086 51.2422Z" fill="#F2F2F2"/>
<path d="M85.4121 63.9232C85.2619 63.9232 85.1113 63.9191 84.9603 63.9108C83.1674 63.8059 81.4629 63.0972 80.1241 61.9002C78.7852 60.7031 77.891 59.0882 77.5868 57.3182C77.2827 55.5482 77.5865 53.7274 78.4489 52.1521C79.3114 50.5768 80.6815 49.3398 82.3365 48.6423C83.9915 47.9449 85.8338 47.8281 87.5636 48.311C89.2933 48.7939 90.8088 49.8481 91.8632 51.3019C92.9176 52.7557 93.4489 54.5235 93.3707 56.3177C93.2924 58.112 92.6092 59.8269 91.4323 61.1834C90.6855 62.0469 89.761 62.7389 88.7219 63.2118C87.6828 63.6847 86.5537 63.9274 85.4121 63.9232ZM85.4479 50.1453C83.9248 50.1474 82.4638 50.7489 81.3805 51.8197C80.2973 52.8904 79.679 54.3445 79.6593 55.8674C79.6395 57.3904 80.2199 58.86 81.275 59.9585C82.33 61.057 83.775 61.6961 85.2976 61.7378C86.8201 61.7794 88.2979 61.2202 89.4114 60.181C90.525 59.1419 91.1848 57.7062 91.2484 56.1844C91.3119 54.6627 90.774 53.177 89.7509 52.0486C88.7279 50.9203 87.3019 50.2398 85.7812 50.1544C85.6698 50.1485 85.5585 50.1455 85.4479 50.1455V50.1453Z" fill="#F2F2F2"/>
<path d="M84.8929 84.0606C83.3449 84.0595 81.8309 83.6065 80.5368 82.7571C79.2427 81.9078 78.2247 80.699 77.6078 79.2793C76.991 77.8595 76.8021 76.2906 77.0644 74.765C77.3267 73.2394 78.0287 71.8236 79.0843 70.6914C80.1398 69.5591 81.503 68.7598 83.0065 68.3914C84.51 68.023 86.0883 68.1016 87.5478 68.6175C89.0072 69.1335 90.2842 70.0644 91.2221 71.2959C92.1599 72.5274 92.7178 74.006 92.8272 75.55C92.9737 77.6523 92.2804 79.7269 90.8993 81.3186C89.5182 82.9104 87.5621 83.8893 85.4601 84.0406C85.2702 84.0539 85.0805 84.0606 84.8929 84.0606ZM84.9025 70.2826C84.7647 70.2826 84.626 70.2876 84.4865 70.2974C82.9632 70.4062 81.5436 71.1086 80.5332 72.2536C79.5227 73.3986 79.0022 74.8945 79.0837 76.4194C79.1652 77.9443 79.8421 79.3763 80.9689 80.4071C82.0956 81.4378 83.582 81.985 85.1082 81.9307C86.6343 81.8765 88.0781 81.2252 89.1288 80.1171C90.1796 79.0089 90.7532 77.5325 90.7262 76.0057C90.6993 74.4788 90.0739 73.0236 88.9847 71.9532C87.8955 70.8829 86.4296 70.283 84.9025 70.2826Z" fill="#F2F2F2"/>
<path d="M40 58.5612C40 56.5865 41.5739 55.6136 43.1189 55.6136C44.4639 55.6136 45.8089 56.3862 45.9523 58.0748C45.5404 58.2143 45.1831 58.4802 44.9313 58.8348C44.6794 59.1893 44.546 59.6142 44.5498 60.049C44.5498 61.3656 45.6087 62.9967 48.1268 62.9967C50.7599 62.9967 52.9059 61.9095 52.9059 59.7919C52.9059 54.9843 40 55.4133 40 48.4886C40 44.625 44.035 42.5648 48.5563 42.5648C52.4479 42.5648 56.2252 43.5664 56.2252 46.371C56.2252 48.1735 54.6799 49.2038 53.1636 49.2038C51.7038 49.2038 50.3588 48.3737 50.2734 46.5708C50.6564 46.4037 50.9852 46.1331 51.2228 45.7893C51.4604 45.4456 51.5974 45.0423 51.6184 44.625C51.6184 43.7669 50.9886 42.6223 48.5563 42.6223C45.9809 42.6223 44.5498 43.8808 44.5498 45.4551C44.5498 50.1193 57.4558 49.4326 57.4558 56.558C57.4558 60.593 53.0487 63.0537 48.1268 63.0537C43.3482 63.0537 40 61.3371 40 58.5612Z" fill="#F2F2F2"/>
<path d="M74.8301 59.3153C74.8301 62.0912 75.1071 62.8353 77.4797 62.8353V62.8638H67.9412V62.8353C69.3936 62.8353 69.5309 61.8909 69.5309 59.3153V52.5231C69.5309 51.3722 69.3903 49.5754 67.7621 49.5754C66.9477 49.5754 66.1338 50.0526 65.2916 50.7827V59.3153C65.2916 61.4044 65.4261 62.8353 66.8813 62.8353V62.8638H57.3428V62.8353C59.7149 62.8353 59.9924 62.0912 59.9924 59.3153V44.3727C59.9924 42.3719 59.8569 41.615 57.3428 42.2096V42.1115L65.2916 40.2422L65.2064 50.6896C68.0333 48.3765 69.7752 47.5481 71.5172 47.5481C73.8303 47.5481 74.8301 48.8908 74.8301 51.8034V59.3153Z" fill="#F2F2F2"/>
<path d="M111.924 58.8189C112.198 61.2802 115.104 61.6805 115.104 61.6805V61.8535L106.823 63.2195L106.91 59.8315C105.619 61.8513 103.973 63.2195 101.971 63.2195C98.5127 63.2195 96.2754 60.3139 96.2754 55.9559C96.2754 51.0162 99.8206 47.4716 104.993 47.4716C105.649 47.4686 106.297 47.6181 106.886 47.9082L106.823 44.3331C106.793 42.2124 106.677 41.3696 103.975 42.0086V42.1118L111.924 40.2425L111.924 58.8189ZM107.155 59.6645V50.6062C107.155 49.1469 107.041 47.6016 105.295 47.6016C103.378 47.6016 102.548 49.8905 102.548 55.9001C102.548 56.93 102.576 61.6233 104.837 61.6233C105.801 61.6233 106.421 60.7746 107.155 59.6645Z" fill="#F2F2F2"/>
<path d="M130.826 57.6607C129.567 60.6653 126.992 63.2407 123.014 63.2407C119.123 63.2407 115.631 60.4933 115.631 55.7432C115.631 51.05 118.865 47.7023 123.844 47.7023C128.881 47.7023 131.485 50.2204 130.569 53.8546H121.026C121.223 57.8979 123.437 59.7205 126.276 59.7205C127.821 59.7205 129.796 59.1766 130.797 57.6313L130.826 57.6607ZM123.845 47.8175C121.356 47.8175 121.012 51.5662 121.012 53.3118C121.012 53.4975 121.016 53.6787 121.023 53.8552H125.483C125.963 52.064 126.064 47.8175 123.844 47.8175H123.845Z" fill="#F2F2F2"/>
<path d="M48 75.4928C48 77.6756 46.4831 79.2422 44.2703 79.2422C43.6186 79.2206 42.9787 79.0543 42.3931 78.7544L41.1624 79.2295V71.0751C41.1624 70.1685 41.1029 69.8255 40 70.0951V70.089L43.4871 69.2422L43.45 73.7798C44.0021 72.8872 44.7065 72.2823 45.5634 72.2823C47.0427 72.2824 48 73.5665 48 75.4928ZM44.2641 79.0856C45.0655 79.0856 45.4125 78.0975 45.4125 75.5031C45.4125 75.0585 45.4008 73.0324 44.4556 73.0324C44.0527 73.0324 43.7937 73.3988 43.487 73.878V77.7885C43.487 78.4185 43.5348 79.0856 44.2644 79.0856H44.2641Z" fill="#F2F2F2"/>
<path d="M54.6102 72.2422H57V72.2539C56.1891 72.2539 55.6788 72.7516 54.9725 74.0436L52.4217 78.7133C51.8724 79.7207 51.1138 81.2377 49.5177 81.2377C49.3211 81.2528 49.1232 81.23 48.937 81.1708C48.7508 81.1116 48.5805 81.0174 48.4372 80.8943C48.294 80.7712 48.181 80.622 48.1058 80.4565C48.0305 80.291 47.9947 80.1129 48.0006 79.9339C48.0048 79.6111 48.1482 79.3025 48.4 79.0744C48.6518 78.8462 48.992 78.7166 49.3478 78.7133C49.5063 78.7053 49.6647 78.7283 49.8125 78.7807C49.9603 78.8332 50.0939 78.9138 50.2043 79.0172C50.3147 79.1206 50.3994 79.2444 50.4525 79.38C50.5056 79.5157 50.5259 79.6602 50.5121 79.8036C50.0805 79.9339 49.701 80.2066 49.701 80.5619C49.701 80.882 49.9366 80.9887 50.2112 80.9887C50.8514 80.9887 51.5828 80.3031 52.4056 78.6837L49.6224 73.6525C49.06 72.6451 48.9031 72.2539 48.0004 72.2539V72.2422H53.1432V72.2539C51.8993 72.2539 52.2488 73.0006 52.7378 73.8304L54.1381 76.2292L55.4206 74.0319C56.0215 73.0007 56.2732 72.2539 54.6101 72.2539L54.6102 72.2422Z" fill="#F2F2F2"/>
<path d="M75.89 82.9153V82.9368C74.7272 83.2383 73.5335 83.4042 72.3327 83.4312C69.5806 83.4312 68.5512 82.3773 67.6784 80.0122C67.1192 78.507 66.8732 75.5821 64.971 75.5821H64.2317V79.5005C64.2317 82.1202 64.2317 83.5084 66.8813 83.5084V83.5309H57.3428V83.4664C59.7437 83.4664 59.7437 82.109 59.9924 79.5474V72.1038C59.7437 69.4547 59.7437 68.1849 57.3428 68.1849V68.163H65.5307C67.835 68.163 73.0484 68.249 73.0484 71.8619C73.0484 74.8082 68.4841 75.4743 65.8215 75.5819V75.6034C70.2068 75.6034 71.7059 76.9797 72.78 79.2378C74.2343 82.3128 74.8157 83.0227 75.89 82.9153ZM64.2317 75.5819H64.8941C67.0593 75.5819 68.0094 74.4292 68.0094 71.8619C68.0094 69.8382 67.2801 68.163 64.8722 68.163H64.2317V75.5819Z" fill="#F2F2F2"/>
<path d="M105.036 81.3467C105.036 83.0553 105.202 83.5131 106.625 83.5131V83.5307H100.796V83.5131C101.765 83.5131 101.856 82.9317 101.856 81.3467V77.2421C101.856 76.5229 101.768 75.3998 100.751 75.3998C100.163 75.4617 99.6156 75.7298 99.2065 76.1566V81.3467C99.2065 82.6324 99.2963 83.5131 100.266 83.5131V83.5307H94.4373V83.5131C95.8607 83.5131 96.027 83.0549 96.027 81.3467V76.7345C96.027 75.5336 95.9459 75.0795 94.4373 75.4362V75.3812L99.3169 74.2341L99.2659 76.1032C100.968 74.7105 102.008 74.2002 103.05 74.2002C104.436 74.2002 105.036 75.0047 105.036 76.7513L105.036 81.3467Z" fill="#F2F2F2"/>
<path d="M118.797 82.0707C118.05 82.7974 117.074 83.2414 116.035 83.3262C114.782 83.3262 114.196 82.559 114.145 81.4074C113.401 82.5711 112.453 83.3596 111.3 83.3596C109.308 83.3596 108.02 81.686 108.02 79.1759C108.02 76.3308 110.061 74.2891 113.04 74.2891C113.418 74.2874 113.792 74.3734 114.131 74.5404L114.094 72.4816C114.077 71.26 114.01 70.7745 112.454 71.1429V71.126L117.223 70.0048V81.2839C117.223 81.9701 117.391 82.3884 118.01 82.3884C118.297 82.368 118.569 82.2499 118.78 82.0538L118.797 82.0707ZM112.618 82.8285C113.211 82.8285 113.593 82.3064 114.044 81.6231V76.0483C114.044 75.15 113.974 74.1989 112.9 74.1989C111.72 74.1989 111.209 75.6078 111.209 79.3067C111.209 79.9404 111.227 82.829 112.618 82.829L112.618 82.8285Z" fill="#F2F2F2"/>
<path d="M131 82.4627C130.223 83.1497 129.259 83.7835 128.211 83.7835C126.834 83.7835 126.275 83.0879 126.301 81.7658C125.551 82.9896 124.593 83.8187 123.429 83.8187C121.418 83.8187 120.116 82.0578 120.116 79.4156C120.116 76.4216 122.178 74.2731 125.187 74.2731C126.077 74.3038 126.948 74.5323 127.739 74.9421L129.412 74.2907V81.6348C129.412 82.357 129.581 82.7972 130.206 82.7972C130.499 82.7748 130.774 82.6502 130.984 82.4451L131 82.4627ZM124.864 82.902C125.433 82.902 125.799 82.3848 126.232 81.7078V76.184C126.232 75.2944 126.165 74.3521 125.134 74.3521C124.001 74.3521 123.511 75.7479 123.511 79.4122C123.511 80.0406 123.528 82.902 124.863 82.902H124.864Z" fill="#F2F2F2"/>
</svg>
