<svg width="32" height="33" viewBox="0 0 32 33" fill="none" xmlns="http://www.w3.org/2000/svg">
<g clip-path="url(#clip0_317_87)">
<path d="M15.4161 16.6398C15.4689 16.6206 15.5249 16.6062 15.5809 16.5902C15.439 16.2755 15.2902 15.964 15.1345 15.6558C12.1265 16.547 9.24654 16.555 8.73294 16.547C8.72814 16.587 8.72814 16.6286 8.72814 16.6686C8.72814 18.1806 9.27214 19.6334 10.2609 20.7742C10.5905 20.243 12.3377 17.6366 15.4161 16.6398ZM11.1969 21.6494C12.0672 22.3163 13.0973 22.743 14.1843 22.8868C15.2712 23.0305 16.3768 22.8863 17.3905 22.4686C17.0966 20.8731 16.6564 19.3081 16.0753 17.7934C12.6817 18.9934 11.4001 21.2526 11.1969 21.6494ZM19.0881 11.9118C18.3486 11.2765 17.4711 10.8224 16.5254 10.5855C15.5797 10.3486 14.5918 10.3354 13.6401 10.547C14.4752 11.6815 15.2347 12.8696 15.9137 14.1038C17.9665 13.315 18.8945 12.1774 19.0881 11.9118ZM14.5281 14.531C13.8385 13.3217 13.0827 12.1514 12.2641 11.0254C11.419 11.4372 10.6768 12.0328 10.0918 12.7687C9.50683 13.5046 9.09391 14.362 8.88334 15.2782H8.91054C9.56014 15.2782 11.8689 15.2254 14.5281 14.531ZM17.4225 17.4622C18.1665 19.531 18.5089 21.2494 18.6065 21.7998C19.9701 20.8384 20.8961 19.3749 21.1809 17.731C20.3524 17.4957 19.4951 17.3767 18.6337 17.3774C18.2209 17.3774 17.8129 17.4062 17.4225 17.4622ZM15.0001 1.30859C6.51694 1.30859 -0.359863 8.18539 -0.359863 16.6686C-0.359863 25.1518 6.51694 32.0286 15.0001 32.0286C23.4833 32.0286 30.3601 25.1518 30.3601 16.6686C30.3601 8.18539 23.4833 1.30859 15.0001 1.30859ZM15.0001 24.1838C13.0072 24.1821 11.0963 23.3899 9.68683 21.981C8.27731 20.5721 7.48428 18.6615 7.48174 16.6686C7.48343 14.6751 8.27609 12.7638 9.6857 11.3542C11.0953 9.94455 13.0067 9.15189 15.0001 9.15019C16.9932 9.15273 18.9039 9.94572 20.3131 11.3552C21.7222 12.7647 22.5148 14.6755 22.5169 16.6686C22.5148 18.6614 21.7221 20.5719 20.3129 21.9809C18.9036 23.3898 16.9929 24.1821 15.0001 24.1838ZM16.4753 15.187C16.6145 15.475 16.7441 15.7582 16.8625 16.0366L16.9761 16.3086C17.4193 16.2558 17.8929 16.2302 18.3873 16.2302C19.3543 16.2321 20.319 16.3243 21.2689 16.5054C21.2324 15.1426 20.754 13.8286 19.9057 12.7614C19.6497 13.091 18.5969 14.3022 16.4753 15.187Z" fill="white"/>
</g>
<defs>
<clipPath id="clip0_317_87">
<rect width="32" height="32" fill="white" transform="translate(0 0.668579)"/>
</clipPath>
</defs>
</svg>
