<svg width="32" height="33" viewBox="0 0 32 33" fill="none" xmlns="http://www.w3.org/2000/svg">
<g clip-path="url(#clip0_317_79)">
<path d="M32 16.6686C32 7.82958 24.833 0.668579 16 0.668579C7.161 0.668579 0 7.82958 0 16.6686C0 24.6526 5.849 31.2726 13.5 32.4716V21.2946H9.437V16.6696H13.5V13.1426C13.5 9.13358 15.885 6.91958 19.541 6.91958C21.292 6.91958 23.125 7.23158 23.125 7.23158V11.1686H21.104C19.12 11.1686 18.5 12.4036 18.5 13.6686V16.6686H22.937L22.224 21.2936H18.5V32.4706C26.145 31.2716 32 24.6516 32 16.6676V16.6686Z" fill="white"/>
</g>
<defs>
<clipPath id="clip0_317_79">
<rect width="32" height="32" fill="white" transform="translate(0 0.668579)"/>
</clipPath>
</defs>
</svg>
