<svg width="32" height="33" viewBox="0 0 32 33" fill="none" xmlns="http://www.w3.org/2000/svg">
<path d="M16 0.668579C7.25 0.668579 0.25 7.66858 0.25 16.4186C0.25 25.1686 7.25 32.1686 16 32.1686C24.75 32.1686 31.75 25.1686 31.75 16.4186C31.75 7.66858 24.75 0.668579 16 0.668579ZM16 12.9186C17.925 12.9186 19.5 14.4936 19.5 16.4186C19.5 18.3436 17.925 19.9186 16 19.9186C14.075 19.9186 12.5 18.3436 12.5 16.4186C12.5 14.4936 14.075 12.9186 16 12.9186ZM20.9 9.41858C20.9 8.19358 21.95 7.31858 23 7.31858C24.05 7.31858 25.1 8.36858 25.1 9.41858C25.1 10.4686 24.225 11.5186 23 11.5186C21.775 11.5186 20.9 10.6436 20.9 9.41858ZM16 28.6686C9.175 28.6686 3.75 23.2436 3.75 16.4186H9C9 20.2686 12.15 23.4186 16 23.4186C19.85 23.4186 23 20.2686 23 16.4186H28.25C28.25 23.2436 22.825 28.6686 16 28.6686Z" fill="white"/>
</svg>
