<svg width="32" height="33" viewBox="0 0 32 33" fill="none" xmlns="http://www.w3.org/2000/svg">
<g clip-path="url(#clip0_317_85)">
<path d="M15.6401 1.30859C6.80347 1.30859 -0.359863 8.47193 -0.359863 17.3086C-0.359863 26.1453 6.80347 33.3086 15.6401 33.3086C24.4768 33.3086 31.6401 26.1453 31.6401 17.3086C31.6401 8.47193 24.4768 1.30859 15.6401 1.30859ZM11.7235 23.9403H8.48347V13.5136H11.7235V23.9403ZM10.0835 12.2336C9.06014 12.2336 8.39847 11.5086 8.39847 10.6119C8.39847 9.69693 9.08014 8.99359 10.1251 8.99359C11.1701 8.99359 11.8101 9.69693 11.8301 10.6119C11.8301 11.5086 11.1701 12.2336 10.0835 12.2336ZM23.5568 23.9403H20.3168V18.1619C20.3168 16.8169 19.8468 15.9036 18.6751 15.9036C17.7801 15.9036 17.2485 16.5219 17.0135 17.1169C16.9268 17.3286 16.9051 17.6286 16.9051 17.9269V23.9386H13.6635V16.8386C13.6635 15.5369 13.6218 14.4486 13.5785 13.5119H16.3935L16.5418 14.9603H16.6068C17.0335 14.2803 18.0785 13.2769 19.8268 13.2769C21.9585 13.2769 23.5568 14.7053 23.5568 17.7753V23.9403Z" fill="white"/>
</g>
<defs>
<clipPath id="clip0_317_85">
<rect width="32" height="32" fill="white" transform="translate(0 0.668579)"/>
</clipPath>
</defs>
</svg>
