<svg width="32" height="33" viewBox="0 0 32 33" fill="none" xmlns="http://www.w3.org/2000/svg">
<g clip-path="url(#clip0_317_77)">
<path d="M15.9999 1.30859C7.51669 1.30859 0.639893 8.18539 0.639893 16.6686C0.639893 25.1518 7.51669 32.0286 15.9999 32.0286C24.4831 32.0286 31.3599 25.1518 31.3599 16.6686C31.3599 8.18539 24.4831 1.30859 15.9999 1.30859ZM22.2479 13.891C22.2543 14.0222 22.2559 14.1534 22.2559 14.2814C22.2559 18.2814 19.2143 22.891 13.6495 22.891C12.0052 22.8937 10.395 22.4215 9.01269 21.531C9.24789 21.5598 9.48949 21.571 9.73429 21.571C11.1519 21.571 12.4559 21.0894 13.4911 20.2766C12.8602 20.2642 12.249 20.0553 11.7425 19.679C11.236 19.3027 10.8595 18.7778 10.6655 18.1774C11.1185 18.2635 11.5853 18.2455 12.0303 18.1246C11.3456 17.9861 10.7298 17.6151 10.2874 17.0745C9.84504 16.5338 9.60326 15.8568 9.60309 15.1582V15.1214C10.0111 15.347 10.4783 15.4846 10.9743 15.5006C10.3324 15.0733 9.87795 14.4169 9.70396 13.6656C9.52998 12.9143 9.64957 12.125 10.0383 11.459C10.7982 12.3934 11.7459 13.1578 12.82 13.7027C13.8941 14.2476 15.0706 14.5609 16.2735 14.6222C16.1206 13.9731 16.1864 13.2916 16.4607 12.6838C16.735 12.076 17.2025 11.5758 17.7904 11.261C18.3783 10.9463 19.0538 10.8346 19.7117 10.9433C20.3697 11.052 20.9733 11.375 21.4287 11.8622C22.1058 11.7282 22.7551 11.4799 23.3487 11.1278C23.123 11.8288 22.6506 12.4241 22.0191 12.803C22.6188 12.7308 23.2045 12.5695 23.7567 12.3246C23.3511 12.9324 22.8401 13.4629 22.2479 13.891Z" fill="white"/>
</g>
<defs>
<clipPath id="clip0_317_77">
<rect width="32" height="32" fill="white" transform="translate(0 0.668579)"/>
</clipPath>
</defs>
</svg>
